<svg width="16" height="17" viewBox="0 0 16 17" fill="none" xmlns="http://www.w3.org/2000/svg"><path d="M5.951 7.475a8.21 8.21 0 003.074 3.074l.688-.963a.778.778 0 011.006-.23c1.1.6 2.315.962 3.565 1.06a.778.778 0 01.716.776v3.47a.778.778 0 01-.698.774c-.413.043-.828.064-1.246.064C6.398 15.5 1 10.102 1 3.444c0-.418.021-.833.064-1.246a.778.778 0 01.774-.698h3.47a.778.778 0 01.776.716 8.884 8.884 0 001.06 3.565.778.778 0 01-.23 1.006l-.963.688zM3.99 6.964l1.478-1.056a10.43 10.43 0 01-.854-2.852h-2.05c-.005.129-.008.259-.008.388 0 5.8 4.7 10.5 10.5 10.5.13 0 .26-.002.388-.007v-2.051a10.43 10.43 0 01-2.852-.854L9.536 12.51a9.675 9.675 0 01-1.235-.583l-.045-.026a9.766 9.766 0 01-3.657-3.657L4.573 8.2a9.678 9.678 0 01-.583-1.235z" fill="#fff"/></svg>