<svg width="16" height="16" viewBox="0 0 16 16" fill="none" xmlns="http://www.w3.org/2000/svg"><path d="M8.001 9.333a2.67 2.67 0 002.667-2.667A2.67 2.67 0 008 4a2.67 2.67 0 00-2.666 2.667A2.67 2.67 0 008 9.333zm0-4A1.335 1.335 0 018 8a1.335 1.335 0 01-1.333-1.333c0-.735.598-1.333 1.333-1.333z" fill="#fff"/><path d="M7.613 14.543a.665.665 0 00.774 0c.202-.144 4.966-3.583 4.946-7.876A5.34 5.34 0 008 1.333a5.339 5.339 0 00-5.333 5.33c-.02 4.297 4.744 7.736 4.946 7.88zM8 2.667c2.206 0 4 1.794 4 4.003.014 2.959-2.925 5.615-4 6.487-1.074-.872-4.014-3.53-4-6.49 0-2.206 1.794-4 4-4z" fill="#fff"/></svg>