<svg width="24" height="24" viewBox="0 0 24 24" fill="none" xmlns="http://www.w3.org/2000/svg"><path fill-rule="evenodd" clip-rule="evenodd" d="M9.25 9.4c0-1.475 1.22-2.692 2.75-2.692s2.75 1.217 2.75 2.693c0 1.475-1.22 2.692-2.75 2.692s-2.75-1.217-2.75-2.692zM12 5.209c-2.335 0-4.25 1.866-4.25 4.193 0 2.327 1.915 4.192 4.25 4.192s4.25-1.865 4.25-4.192S14.334 5.208 12 5.208zM8.375 18.666a2.692 2.692 0 012.692-2.693h1.865a2.692 2.692 0 012.692 2.693h1.5a4.192 4.192 0 00-4.192-4.193h-1.865a4.192 4.192 0 00-4.192 4.193h1.5z" fill="#D0BC7A"/></svg>