<svg width="32" height="32" viewBox="0 0 32 32" fill="none" xmlns="http://www.w3.org/2000/svg"><g filter="url(#filter0_b_1_652)"><rect width="32" height="32" rx="16" fill="#fff" fill-opacity=".08"/><path d="M16 9c-3.866 0-7 3.153-7 7.042 0 3.515 2.56 6.428 5.906 6.958v-4.922h-1.778v-2.036h1.778v-1.551c0-1.767 1.046-2.74 2.644-2.74.766 0 1.568.137 1.568.137v1.732h-.885c-.868 0-1.14.543-1.14 1.1v1.32h1.94l-.31 2.037h-1.63v4.922C20.441 22.47 23 19.557 23 16.042 23 12.153 19.866 9 16 9z" fill="#D0BC7A"/><rect x=".5" y=".5" width="31" height="31" rx="15.5" stroke="#fff" stroke-opacity=".16"/></g><defs><filter id="filter0_b_1_652" x="-24" y="-24" width="80" height="80" filterUnits="userSpaceOnUse" color-interpolation-filters="sRGB"><feFlood flood-opacity="0" result="BackgroundImageFix"/><feGaussianBlur in="BackgroundImage" stdDeviation="12"/><feComposite in2="SourceAlpha" operator="in" result="effect1_backgroundBlur_1_652"/><feBlend in="SourceGraphic" in2="effect1_backgroundBlur_1_652" result="shape"/></filter></defs></svg>