<?xml version="1.0" standalone="no"?>
<!DOCTYPE svg PUBLIC "-//W3C//DTD SVG 20010904//EN"
 "http://www.w3.org/TR/2001/REC-SVG-20010904/DTD/svg10.dtd">
<svg version="1.0" xmlns="http://www.w3.org/2000/svg"
 width="260.000000pt" height="260.000000pt" viewBox="0 0 260.000000 260.000000"
 preserveAspectRatio="xMidYMid meet">
<metadata>
Created by potrace 1.14, written by Peter Selinger 2001-2017
</metadata>
<g transform="translate(0.000000,260.000000) scale(0.100000,-0.100000)"
fill="#000000" stroke="none">
<path d="M1010 2389 c-86 -14 -115 -20 -170 -35 -326 -91 -607 -322 -740 -611
-37 -79 -77 -210 -89 -288 -12 -76 -7 -283 8 -355 42 -204 143 -391 290 -539
176 -178 354 -276 601 -332 96 -21 336 -37 382 -26 l25 7 1 1072 c0 590 -1
1083 -4 1096 -5 23 -6 23 -132 21 -70 -2 -147 -6 -172 -10z"/>
<path d="M1616 2383 c-3 -10 -5 -224 -5 -475 0 -421 1 -459 17 -466 26 -12
950 -8 962 4 7 7 9 172 8 480 l-3 469 -487 3 c-457 2 -487 1 -492 -15z"/>
<path d="M1616 1153 c-3 -10 -5 -224 -5 -475 0 -338 4 -459 12 -467 14 -11
947 -14 965 -2 9 6 12 120 10 482 l-3 474 -487 3 c-457 2 -487 1 -492 -15z"/>
</g>
</svg>
