<svg width="32" height="32" viewBox="0 0 32 32" fill="none" xmlns="http://www.w3.org/2000/svg"><rect width="32" height="32" rx="16" fill="#fff"/><path d="M22.386 12.57c.093-.31 0-.537-.441-.537h-1.462c-.372 0-.542.196-.636.412 0 0-.743 1.813-1.796 2.988-.34.342-.496.45-.681.45-.093 0-.227-.108-.227-.418V12.57c0-.372-.108-.537-.418-.537h-2.297c-.232 0-.372.172-.372.336 0 .352.527.433.58 1.425v2.152c0 .471-.084.557-.27.557-.496 0-1.701-1.819-2.417-3.902-.14-.404-.28-.568-.653-.568H9.835c-.418 0-.502.197-.502.413 0 .388.496 2.308 2.308 4.847 1.208 1.734 2.908 2.674 4.458 2.674.928 0 1.043-.208 1.043-.568v-1.311c0-.417.089-.501.383-.501.216 0 .588.109 1.455.944.99.991 1.155 1.436 1.711 1.436h1.462c.417 0 .626-.209.506-.621-.132-.41-.605-1.007-1.233-1.713-.341-.402-.851-.836-1.007-1.052-.216-.28-.154-.403 0-.651 0 0 1.782-2.507 1.967-3.36z" fill="#D0BC7A"/><rect x=".5" y=".5" width="31" height="31" rx="15.5" stroke="#fff"/></svg>