<svg width="32" height="32" viewBox="0 0 32 32" fill="none" xmlns="http://www.w3.org/2000/svg"><rect width="32" height="32" rx="16" fill="#fff" fill-opacity=".08"/><path d="M21.965 13.537a4.354 4.354 0 00-.28-1.478 3.073 3.073 0 00-1.755-1.755 4.401 4.401 0 00-1.457-.28c-.642-.029-.845-.037-2.473-.037s-1.837 0-2.473.037a4.4 4.4 0 00-1.457.28 3.071 3.071 0 00-1.755 1.755 4.37 4.37 0 00-.28 1.457c-.028.642-.037.845-.037 2.473s0 1.836.037 2.474c.01.498.104.99.28 1.458a3.07 3.07 0 001.756 1.754 4.39 4.39 0 001.456.3c.642.029.846.038 2.474.038 1.628 0 1.836 0 2.473-.038a4.4 4.4 0 001.457-.279 3.077 3.077 0 001.756-1.755 4.39 4.39 0 00.279-1.458c.029-.642.037-.845.037-2.474-.001-1.628-.001-1.834-.038-2.472zm-5.969 5.531a3.081 3.081 0 11-.001-6.163 3.081 3.081 0 01.001 6.163zm3.205-5.56a.718.718 0 11-.002-1.435.718.718 0 01.002 1.436z" fill="#D0BC7A"/><path d="M15.996 17.988a2.002 2.002 0 100-4.004 2.002 2.002 0 000 4.004z" fill="#D0BC7A"/><rect x=".5" y=".5" width="31" height="31" rx="15.5" stroke="#fff" stroke-opacity=".16"/></svg>