<svg width="13" height="11" viewBox="0 0 13 11" fill="none" xmlns="http://www.w3.org/2000/svg"><path d="M5.862 0h.588a.14.14 0 01.095.037c.026.024.04.056.04.09v10.746a.123.123 0 01-.04.09.14.14 0 01-.095.037h-.588a6.2 6.2 0 01-2.244-.419A5.903 5.903 0 011.716 9.39a5.49 5.49 0 01-1.27-1.785A5.204 5.204 0 010 5.499C0 4.04.618 2.642 1.717 1.61 2.817.579 4.307 0 5.862 0zm7 .001H8.201c-.076 0-.138.058-.138.13v4.555c0 .072.062.13.138.13h4.661c.076 0 .138-.058.138-.13V.13c0-.071-.062-.129-.138-.129zm0 6.144H8.201c-.076 0-.138.057-.138.129v4.593c0 .071.062.13.138.13h4.661c.076 0 .138-.059.138-.13V6.274c0-.072-.062-.13-.138-.13z" opacity=".4" fill="#fff"/></svg>